<?xml version="1.0" ?><svg width="512px" height="512px" viewBox="0 0 32 32" xmlns="http://www.w3.org/2000/svg"><title/><path d="M27,4H10A1,1,0,0,0,9,5V7.852a4.462,4.462,0,0,1-1.423-.669A1,1,0,1,0,6.423,8.817,6.38,6.38,0,0,0,9,9.909v2.943a4.462,4.462,0,0,1-1.423-.669,1,1,0,1,0-1.154,1.634A6.38,6.38,0,0,0,9,14.909v2.943a4.462,4.462,0,0,1-1.423-.669,1,1,0,1,0-1.154,1.634A6.38,6.38,0,0,0,9,19.909v2.943a4.462,4.462,0,0,1-1.423-.669,1,1,0,1,0-1.154,1.634A6.38,6.38,0,0,0,9,24.909V27a1,1,0,0,0,1,1H27a1,1,0,0,0,1-1V5A1,1,0,0,0,27,4ZM26,26H11V24.909a6.38,6.38,0,0,0,2.577-1.092,1,1,0,1,0-1.154-1.634A4.462,4.462,0,0,1,11,22.852V19.909a6.38,6.38,0,0,0,2.577-1.092,1,1,0,1,0-1.154-1.634A4.462,4.462,0,0,1,11,17.852V14.909a6.38,6.38,0,0,0,2.577-1.092,1,1,0,1,0-1.154-1.634A4.462,4.462,0,0,1,11,12.852V9.909a6.38,6.38,0,0,0,2.577-1.092,1,1,0,1,0-1.154-1.634A4.462,4.462,0,0,1,11,7.852V6H26ZM16,10a1,1,0,0,1,1-1h7a1,1,0,0,1,0,2H17A1,1,0,0,1,16,10Zm0,4a1,1,0,0,1,1-1h7a1,1,0,0,1,0,2H17A1,1,0,0,1,16,14Zm0,4a1,1,0,0,1,1-1h7a1,1,0,0,1,0,2H17A1,1,0,0,1,16,18Zm0,4a1,1,0,0,1,1-1h7a1,1,0,0,1,0,2H17A1,1,0,0,1,16,22Z"/></svg>