<?xml version="1.0" encoding="iso-8859-1"?>
<!-- Generator: Adobe Illustrator 19.0.0, SVG Export Plug-In . SVG Version: 6.00 Build 0)  -->
<svg version="1.1" id="Layer_1" xmlns="http://www.w3.org/2000/svg" xmlns:xlink="http://www.w3.org/1999/xlink" x="0px" y="0px"
	 viewBox="0 0 512 512" style="enable-background:new 0 0 512 512;" xml:space="preserve">
<g>
	<g>
		<g>
			<path d="M466.069,10.667h-14.421c-9.697,0-19.146,3.101-26.951,8.854L321.045,95.66C321.366,95.425,62.464,96,62.464,96
				C27.962,96,0,123.962,0,158.464v88.405c0,34.502,27.962,62.464,62.464,62.464h114.611L88.016,469.64
				c-7.9,14.219,2.382,31.694,18.649,31.694h85.333c7.748,0,14.886-4.2,18.649-10.973l100.571-181.027h7.026l106.694,76.772
				c7.736,5.56,17.041,8.561,26.562,8.561h14.805c25.237,0,45.696-20.446,45.696-45.675V56.597
				C512,31.226,491.441,10.667,466.069,10.667z M179.445,458.667h-36.524l82.963-149.333h36.524L179.445,458.667z M469.333,348.992
				c0,1.658-1.35,3.008-3.029,3.008h-14.805c-0.579,0-1.175-0.192-1.65-0.534l-108.087-77.775
				c-6.297-4.562-13.92-7.025-21.761-7.025h-21.335h-85.333H62.464c-10.938,0-19.797-8.859-19.797-19.797v-88.405
				c0-10.938,8.859-19.797,19.797-19.797H320c8.692,0,19.273-3.47,26.281-8.603l103.703-76.177c0.494-0.364,1.07-0.553,1.664-0.553
				h14.421c1.807,0,3.264,1.457,3.264,3.264V348.992z"/>
			<path d="M298.665,181.333H127.998c-11.782,0-21.333,9.551-21.333,21.333c0,11.782,9.551,21.333,21.333,21.333h170.667
				c11.782,0,21.333-9.551,21.333-21.333C319.998,190.885,310.447,181.333,298.665,181.333z"/>
		</g>
	</g>
</g>
<g>
</g>
<g>
</g>
<g>
</g>
<g>
</g>
<g>
</g>
<g>
</g>
<g>
</g>
<g>
</g>
<g>
</g>
<g>
</g>
<g>
</g>
<g>
</g>
<g>
</g>
<g>
</g>
<g>
</g>
</svg>
