<?xml version="1.0" encoding="iso-8859-1"?>
<!-- Generator: Adobe Illustrator 17.1.0, SVG Export Plug-In . SVG Version: 6.00 Build 0)  -->
<!DOCTYPE svg PUBLIC "-//W3C//DTD SVG 1.1//EN" "http://www.w3.org/Graphics/SVG/1.1/DTD/svg11.dtd">
<svg version="1.1" id="Capa_1" xmlns="http://www.w3.org/2000/svg" xmlns:xlink="http://www.w3.org/1999/xlink" x="0px" y="0px"
	 viewBox="0 0 355 355" style="enable-background:new 0 0 355 355;" xml:space="preserve">
<path d="M310.5,29h-45V8c0-4.411-3.589-8-8-8h-43c-4.411,0-8,3.589-8,8v21h-57V8c0-4.411-3.589-8-8-8h-44c-4.411,0-8,3.589-8,8v21
	h-45c-8.271,0-15,6.729-15,15v296c0,8.272,6.729,15,15,15h266c8.271,0,15-6.728,15-15V44C325.5,35.729,318.771,29,310.5,29z
	 M249.5,298h-144c-8.284,0-15-6.716-15-15s6.716-15,15-15h144c8.284,0,15,6.716,15,15S257.784,298,249.5,298z M249.5,233h-144
	c-8.284,0-15-6.716-15-15s6.716-15,15-15h144c8.284,0,15,6.716,15,15S257.784,233,249.5,233z M249.5,168h-144
	c-8.284,0-15-6.716-15-15s6.716-15,15-15h144c8.284,0,15,6.716,15,15S257.784,168,249.5,168z M278.5,92h-203
	c-8.284,0-15-6.716-15-15s6.716-15,15-15h14v9c0,4.411,3.589,8,8,8h44c4.411,0,8-3.589,8-8v-9h57v9c0,4.411,3.589,8,8,8h43
	c4.411,0,8-3.589,8-8v-9h13c8.284,0,15,6.716,15,15S286.784,92,278.5,92z"/>
<g>
</g>
<g>
</g>
<g>
</g>
<g>
</g>
<g>
</g>
<g>
</g>
<g>
</g>
<g>
</g>
<g>
</g>
<g>
</g>
<g>
</g>
<g>
</g>
<g>
</g>
<g>
</g>
<g>
</g>
</svg>
