<?xml version="1.0" encoding="iso-8859-1"?>
<!-- Generator: Adobe Illustrator 19.0.0, SVG Export Plug-In . SVG Version: 6.00 Build 0)  -->
<svg version="1.1" id="Layer_1" xmlns="http://www.w3.org/2000/svg" xmlns:xlink="http://www.w3.org/1999/xlink" x="0px" y="0px"
	 viewBox="0 0 206.916 206.916" style="enable-background:new 0 0 206.916 206.916;" xml:space="preserve">
<g>
	<g>
		<g>
			<path d="M173.636,140.407h-0.162c-1.875-35.757-30.564-64.446-66.322-66.321V48.034h44.339c2.042,0,3.695-1.653,3.695-3.695
				V14.78c0-2.042-1.653-3.695-3.695-3.695h-44.339V0h-7.39v14.78v29.559v29.747c-35.757,1.875-64.446,30.564-66.321,66.321h-0.162
				c-8.162,0-14.805,6.628-14.805,14.78c0,8.152,6.643,14.78,14.805,14.78h3.67v33.254c0,2.042,1.653,3.695,3.695,3.695h125.627
				c2.042,0,3.695-1.653,3.695-3.695v-33.254h3.67c8.162,0,14.805-6.628,14.805-14.78
				C188.442,147.035,181.799,140.407,173.636,140.407z M107.154,18.475h40.644v22.169h-40.644V18.475z M103.459,81.288
				c33.395,0,60.786,26.196,62.705,59.119H40.753C42.672,107.484,70.063,81.288,103.459,81.288z M162.576,199.525H44.339v-29.559
				h118.237V199.525z M173.636,162.576h-7.365H40.644h-7.365c-4.088,0-7.415-3.316-7.415-7.39c0-4.074,3.327-7.39,7.415-7.39h3.67
				h133.017h3.67c4.088,0,7.415,3.316,7.415,7.39C181.052,159.26,177.725,162.576,173.636,162.576z"/>
			<rect x="81.289" y="92.373" width="11.085" height="7.39"/>
			<rect x="107.154" y="107.153" width="11.085" height="7.39"/>
			<rect x="59.12" y="118.237" width="11.085" height="7.39"/>
			<rect x="136.713" y="121.932" width="11.085" height="7.39"/>
			<rect x="92.373" y="125.627" width="11.085" height="7.39"/>
		</g>
	</g>
</g>
<g>
</g>
<g>
</g>
<g>
</g>
<g>
</g>
<g>
</g>
<g>
</g>
<g>
</g>
<g>
</g>
<g>
</g>
<g>
</g>
<g>
</g>
<g>
</g>
<g>
</g>
<g>
</g>
<g>
</g>
</svg>
