<?xml version="1.0" encoding="iso-8859-1"?>
<!-- Generator: Adobe Illustrator 19.0.0, SVG Export Plug-In . SVG Version: 6.00 Build 0)  -->
<svg version="1.1" id="Layer_1" xmlns="http://www.w3.org/2000/svg" xmlns:xlink="http://www.w3.org/1999/xlink" x="0px" y="0px"
	 viewBox="0 0 187.079 187.079" style="enable-background:new 0 0 187.079 187.079;" xml:space="preserve">
<g>
	<g>
		<g>
			<path d="M111.668,46.659c-5.986-12.788-17.147-20.715-29.144-20.715c-0.033,0-0.069,0.004-0.101,0.004
				c-11.092,0.04-20.802,6.791-25.98,18.06C49.414,59.315,54.3,73.86,62.465,79.774c6.542,4.741,14.563,4.02,20.932-1.891
				c5.596-5.189,8.263-10.529,7.92-15.869c-0.44-6.935-5.936-10.933-6.17-11.099c-1.656-1.187-3.922-0.797-5.117,0.841
				s-0.83,3.94,0.794,5.153c0.029,0.022,2.941,2.226,3.125,5.643c0.159,2.955-1.768,6.383-5.575,9.912
				c-3.789,3.511-7.902,3.987-11.575,1.324c-5.784-4.189-9.024-14.967-3.637-26.698c3.998-8.71,11.031-13.723,19.29-13.751
				c0.022,0,0.047-0.004,0.072-0.004c9.097,0,17.695,6.3,22.454,16.458c4.146,8.859,2.991,19.878-3.172,30.238
				c-7.166,12.041-19.182,20.257-30.613,20.935c-10.359,0.624-19.467-2.327-26.294-8.508c-7-6.343-11.085-15.754-11.507-26.5
				C32.57,44.977,54.375,26.849,54.595,26.665c1.58-1.292,1.811-3.619,0.52-5.196c-1.292-1.584-3.623-1.808-5.196-0.523
				c-1.014,0.83-24.879,20.614-23.909,45.299c0.498,12.745,5.445,23.999,13.928,31.685c7.617,6.906,17.439,10.504,28.556,10.504
				c1.032,0,2.082-0.029,3.139-0.094c13.805-0.819,28.141-10.446,36.524-24.533C115.594,71.311,116.875,57.769,111.668,46.659z"/>
			<path d="M183.466,171.334l-63.799-63.799c8.905-11.315,14.268-25.544,14.268-41.026C133.935,29.837,104.098,0,67.427,0
				S0.918,29.837,0.918,66.508s29.837,66.508,66.508,66.508c14.54,0,27.962-4.745,38.92-12.692c0.011,0.011,0.014,0.026,0.025,0.037
				l64.033,64.033c1.79,1.79,4.142,2.685,6.499,2.685c2.367,0,4.738-0.902,6.542-2.706c1.75-1.75,2.714-4.067,2.717-6.524
				C186.164,175.386,185.208,173.073,183.466,171.334z M67.427,125.627c-32.598,0-59.119-26.521-59.119-59.119
				S34.828,7.389,67.427,7.389s59.119,26.521,59.119,59.119S100.025,125.627,67.427,125.627z M178.22,179.149
				c-0.473,0.473-1.025,0.545-1.31,0.548c-0.004,0-0.004,0-0.004,0c-0.285,0-0.819-0.072-1.277-0.527l-61.421-61.421l2.612-2.612
				l61.424,61.424c0.339,0.339,0.53,0.794,0.527,1.274C178.772,178.327,178.577,178.792,178.22,179.149z"/>
		</g>
	</g>
</g>
<g>
</g>
<g>
</g>
<g>
</g>
<g>
</g>
<g>
</g>
<g>
</g>
<g>
</g>
<g>
</g>
<g>
</g>
<g>
</g>
<g>
</g>
<g>
</g>
<g>
</g>
<g>
</g>
<g>
</g>
</svg>
