<?xml version="1.0" encoding="utf-8"?>
<!-- Uploaded to SVGRepo https://www.svgrepo.com -->
<svg version="1.2" baseProfile="tiny" id="Layer_1" xmlns="http://www.w3.org/2000/svg" xmlns:xlink="http://www.w3.org/1999/xlink"
	 x="0px" y="0px" viewBox="0 0 256 256" xml:space="preserve">
<path d="M218.8,52.1H110.2v-0.9c0.1-0.5,0.1-1.1,0.1-1.6V38.2c0-7.8-6.4-14.2-14.2-14.2H85.9H33.4H23.3c-7.8,0-14.2,6.4-14.2,14.2
	v10.1v1.2V75v130.7c0,15.5,12.6,28,28.1,28.1h181.6c15.5,0,28.1-12.6,28.1-28.1V80.2C246.9,64.7,234.3,52.1,218.8,52.1z
	 M218.8,215.1H37.2c-5.2-0.1-9.3-4.2-9.4-9.4V80.3c0.1-5.2,4.2-9.3,9.4-9.4h181.6c5.2,0.1,9.3,4.2,9.4,9.4v125.4h0
	C228.1,210.9,224,215,218.8,215.1z M170.2,108.3c0-11.2,9.1-20.4,20.4-20.4s20.4,9.1,20.4,20.4c0,11.2-9.1,20.4-20.4,20.4h-0.1
	c0,0,0,0,0,0C179.2,128.7,170.2,119.5,170.2,108.3z M158.8,149.9l54.7,52.5h-173l51-103.7l33.8,75.3L158.8,149.9z"/>
</svg>
